<svg width="17" height="16" viewBox="0 0 17 16" fill="none" xmlns="http://www.w3.org/2000/svg">
<path d="M14.3024 8.66664C14.3024 12 11.9691 13.6666 9.19574 14.6333C9.05052 14.6825 8.89277 14.6802 8.74908 14.6266C5.96908 13.6666 3.63574 12 3.63574 8.66664V3.99997C3.63574 3.82316 3.70598 3.65359 3.831 3.52857C3.95603 3.40355 4.1256 3.33331 4.30241 3.33331C5.63574 3.33331 7.30241 2.53331 8.46241 1.51997C8.60365 1.39931 8.78331 1.33301 8.96908 1.33301C9.15484 1.33301 9.33451 1.39931 9.47574 1.51997C10.6424 2.53997 12.3024 3.33331 13.6357 3.33331C13.8126 3.33331 13.9821 3.40355 14.1071 3.52857C14.2322 3.65359 14.3024 3.82316 14.3024 3.99997V8.66664Z" stroke="#0A0A0A" stroke-width="1.33333" stroke-linecap="round" stroke-linejoin="round"/>
</svg>
